<svg width="7164" height="4526" xmlns="http://www.w3.org/2000/svg" xmlns:xlink="http://www.w3.org/1999/xlink" xml:space="preserve" overflow="hidden"><g transform="translate(-541 -2191)"><path d="M1807 3097.58C1807 2974.65 1906.65 2875 2029.58 2875L6481.42 2875C6604.35 2875 6704 2974.65 6704 3097.58L6704 6079.42C6704 6202.35 6604.35 6302 6481.42 6302L2029.58 6302C1906.65 6302 1807 6202.35 1807 6079.42Z" fill="#DAA600" fill-rule="evenodd"/><path d="M1807 3500.67C1807 3343.45 1934.45 3216 2091.67 3216L6419.33 3216C6576.55 3216 6704 3343.45 6704 3500.67L6704 5971.33C6704 6128.55 6576.55 6256 6419.33 6256L2091.67 6256C1934.45 6256 1807 6128.55 1807 5971.33Z" fill="#FFC000" fill-rule="evenodd"/><path d="M610 5988.35C808.333 5840.51 1006.67 6136.2 1205 5988.35 1403.33 5840.51 1601.67 6136.2 1800 5988.35L1800 6531.65C1601.67 6679.49 1403.33 6383.8 1205 6531.65 1006.67 6679.49 808.333 6383.8 610 6531.65Z" fill="#00B050" fill-rule="evenodd"/><path d="M1796 5988.35C1994.17 5840.51 2192.33 6136.2 2390.5 5988.35 2588.67 5840.51 2786.83 6136.2 2985 5988.35L2985 6531.65C2786.83 6679.49 2588.67 6383.8 2390.5 6531.65 2192.33 6679.49 1994.17 6383.8 1796 6531.65Z" fill="#00B050" fill-rule="evenodd"/><path d="M2966 5988.35C3164.33 5840.51 3362.67 6136.2 3561 5988.35 3759.33 5840.51 3957.67 6136.2 4156 5988.35L4156 6531.65C3957.67 6679.49 3759.33 6383.8 3561 6531.65 3362.67 6679.49 3164.33 6383.8 2966 6531.65Z" fill="#00B050" fill-rule="evenodd"/><path d="M5326 5988.35C5524.33 5840.51 5722.67 6136.2 5921 5988.35 6119.33 5840.51 6317.67 6136.2 6516 5988.35L6516 6531.65C6317.67 6679.49 6119.33 6383.8 5921 6531.65 5722.67 6679.49 5524.33 6383.8 5326 6531.65Z" fill="#00B050" fill-rule="evenodd"/><path d="M4140 5988.35C4338.33 5840.51 4536.67 6136.2 4735 5988.35 4933.33 5840.51 5131.67 6136.2 5330 5988.35L5330 6531.65C5131.67 6679.49 4933.33 6383.8 4735 6531.65 4536.67 6679.49 4338.33 6383.8 4140 6531.65Z" fill="#00B050" fill-rule="evenodd"/><path d="M6516 5984.35C6714.17 5836.51 6912.33 6132.2 7110.5 5984.35 7308.67 5836.51 7506.83 6132.2 7705 5984.35L7705 6527.65C7506.83 6675.49 7308.67 6379.8 7110.5 6527.65 6912.33 6675.49 6714.17 6379.8 6516 6527.65Z" fill="#00B050" fill-rule="evenodd"/><path d="M1967.37 6437.33C1357.46 6437.33 1749.46 5905.01 1903.9 5607.12 2058.34 5309.23 2284.09 4650 2894 4650 2546.4 5010.76 2496.27 5880.31 2341.83 6178.2 2187.39 6476.08 2254.45 6508.05 1967.37 6437.33Z" fill="#00B050" fill-rule="evenodd"/><path d="M541.951 4407.58C1138.07 4278.89 1764.76 5305.59 1943.84 5668.55 2122.92 6031.51 2212.54 6456.66 1616.42 6585.35 1588.1 6133.94 1583.24 6148.02 1404.16 5785.06 1225.08 5422.09 957.826 4686.92 541.951 4407.58Z" fill="#00B050" fill-rule="evenodd"/><path d="M1205.28 3759.79C1698.79 3733.08 2121.47 5162.96 2202.59 5628.52 2283.71 6094.09 2185.48 6526.49 1691.97 6553.19 1892.33 6022.79 1745.77 6123.2 1664.65 5657.63 1583.54 5192.06 1461.69 4265.47 1205.28 3759.79Z" fill="#00B050" fill-rule="evenodd"/><path d="M4796.45 5376.62C5289.96 5349.92 5592.07 5946.33 5654.15 6141.13 5716.23 6335.93 5662.43 6518.71 5168.92 6545.41 5369.27 6015.01 5140.21 6695.03 5078.14 6500.24 5016.06 6305.44 5052.87 5882.31 4796.45 5376.62Z" fill="#00B050" fill-rule="evenodd"/><path d="M5052.92 3872.74C5546.43 3846.04 5958.54 5290.72 6050.23 5741.48 6141.93 6192.24 6096.59 6550.6 5603.08 6577.3 5803.43 6046.9 5603.99 6221.34 5512.3 5770.58 5420.6 5319.82 5309.33 4378.43 5052.92 3872.74Z" fill="#00B050" fill-rule="evenodd"/><path d="M6022.72 6269.17C5528.58 6269.17 5561.57 6438.3 5648.28 6088.11 5735 5737.91 6048.86 4168 6543 4168 6314.32 4686.86 6273.62 5737.91 6186.9 6088.11 6100.19 6438.3 5794.04 5750.31 6022.72 6269.17Z" fill="#00B050" fill-rule="evenodd"/><path d="M6316.61 6562.59C5652.4 6492.65 5639.33 6749.6 5784.61 6430.46 5929.9 6111.33 6524.11 4577.83 7188.32 4647.77 6826.61 5131.35 6653.9 6187.56 6508.62 6506.7 6363.33 6825.84 6063.56 6014.27 6316.61 6562.59Z" fill="#00B050" fill-rule="evenodd"/><path d="M7663.17 6717 651.83 6717C628.728 6717 610 6698.27 610 6675.17L610 6466 7705 6466 7705 6675.17C7705 6698.27 7686.27 6717 7663.17 6717Z" fill="#C55A11" fill-rule="evenodd"/><path d="M1807 2362.18C1807 2267.64 1883.64 2191 1978.18 2191L3745.93 2191C3840.47 2191 3897.4 2308.64 3926.74 2353.9L4408 2999.41C4408 3093.95 4331.36 3170.59 4236.83 3170.59L1978.18 3170.59C1883.64 3170.59 1807 3244.37 1807 3149.83 1807 2887.28 1807 2624.73 1807 2362.18Z" fill="#DAA600" fill-rule="evenodd"/></g></svg>